<svg width="155" height="30" viewBox="0 0 155 30" fill="none" xmlns="http://www.w3.org/2000/svg">
<path d="M20.0832 8.09915C21.9325 8.09915 23.3805 8.65742 24.4273 9.77397C25.4915 10.8905 26.0236 12.4171 26.0236 14.3536V22.9109H20.8945V15.034C20.8945 14.2489 20.6764 13.6383 20.2403 13.2021C19.8041 12.766 19.2109 12.5479 18.4608 12.5479C17.7106 12.5479 17.1174 12.766 16.6813 13.2021C16.2451 13.6383 16.027 14.2489 16.027 15.034V22.9109H10.8979V15.034C10.8979 14.2489 10.6798 13.6383 10.2437 13.2021C9.82495 12.766 9.24051 12.5479 8.49033 12.5479C7.7227 12.5479 7.12081 12.766 6.68466 13.2021C6.24851 13.6383 6.03043 14.2489 6.03043 15.034V22.9109H0.901291V8.23H6.03043V10.1665C6.48403 9.53845 7.06847 9.04124 7.78376 8.67487C8.5165 8.29106 9.35391 8.09915 10.296 8.09915C11.3777 8.09915 12.3372 8.33467 13.1746 8.80572C14.0295 9.27676 14.7011 9.93971 15.1896 10.7946C15.713 9.99205 16.4021 9.34655 17.257 8.85806C18.1118 8.35212 19.0539 8.09915 20.0832 8.09915ZM36.9723 10.2712C37.3736 9.59079 37.9406 9.04996 38.6733 8.6487C39.406 8.24744 40.2696 8.04681 41.264 8.04681C42.4329 8.04681 43.4884 8.35212 44.4305 8.96273C45.39 9.57334 46.1402 10.4456 46.6811 11.5796C47.2393 12.7136 47.5185 14.0395 47.5185 15.5573C47.5185 17.0752 47.2393 18.4098 46.6811 19.5612C46.1402 20.6952 45.39 21.5675 44.4305 22.1781C43.4884 22.7887 42.4329 23.094 41.264 23.094C40.2696 23.094 39.406 22.8934 38.6733 22.4922C37.958 22.0909 37.391 21.5501 36.9723 20.8697V29.9242H31.8432V8.23H36.9723V10.2712ZM42.3108 15.5573C42.3108 14.5978 42.0491 13.8564 41.5257 13.333C41.0198 12.7921 40.3917 12.5217 39.6416 12.5217C38.8914 12.5217 38.2546 12.7921 37.7312 13.333C37.2253 13.8738 36.9723 14.6153 36.9723 15.5573C36.9723 16.5169 37.2253 17.2671 37.7312 17.8079C38.2546 18.3487 38.8914 18.6191 39.6416 18.6191C40.3917 18.6191 41.0198 18.3487 41.5257 17.8079C42.0491 17.2496 42.3108 16.4994 42.3108 15.5573ZM66.6661 15.4003C66.6661 15.8016 66.6399 16.2028 66.5876 16.6041H56.8788C56.9312 17.4066 57.1492 18.0085 57.533 18.4098C57.9343 18.7936 58.4402 18.9855 59.0509 18.9855C59.9057 18.9855 60.5163 18.6017 60.8827 17.8341H66.352C66.1252 18.8459 65.6804 19.7531 65.0174 20.5556C64.3719 21.3407 63.5519 21.96 62.5575 22.4136C61.5631 22.8672 60.464 23.094 59.2602 23.094C57.8122 23.094 56.5212 22.7887 55.3872 22.1781C54.2706 21.5675 53.3896 20.6952 52.7441 19.5612C52.116 18.4272 51.802 17.0926 51.802 15.5573C51.802 14.0221 52.116 12.6962 52.7441 11.5796C53.3722 10.4456 54.2445 9.57334 55.361 8.96273C56.495 8.35212 57.7947 8.04681 59.2602 8.04681C60.7082 8.04681 61.9905 8.3434 63.1071 8.93656C64.2236 9.52973 65.0959 10.3846 65.724 11.5011C66.352 12.6002 66.6661 13.9 66.6661 15.4003ZM61.4322 14.118C61.4322 13.49 61.2229 13.0015 60.8042 12.6526C60.3855 12.2862 59.8621 12.103 59.234 12.103C58.606 12.103 58.0913 12.2775 57.6901 12.6264C57.2888 12.9579 57.0271 13.4551 56.905 14.118H61.4322ZM62.4267 4.54015L55.8844 7.10473V3.62424L62.4267 0.667129V4.54015ZM76.9037 10.8207C77.4794 9.98333 78.1773 9.32037 78.9972 8.83189C79.8172 8.3434 80.6982 8.09915 81.6403 8.09915V13.5685H80.201C79.0845 13.5685 78.2558 13.7866 77.7149 14.2227C77.1741 14.6589 76.9037 15.4178 76.9037 16.4994V22.9109H71.7746V8.23H76.9037V10.8207ZM89.0793 6.8692C88.1721 6.8692 87.4393 6.62496 86.8811 6.13647C86.3402 5.63053 86.0698 5.00248 86.0698 4.25229C86.0698 3.48467 86.3402 2.84789 86.8811 2.34195C87.4393 1.83601 88.1721 1.58305 89.0793 1.58305C89.969 1.58305 90.6843 1.83601 91.2251 2.34195C91.7834 2.84789 92.0626 3.48467 92.0626 4.25229C92.0626 5.00248 91.7834 5.63053 91.2251 6.13647C90.6843 6.62496 89.969 6.8692 89.0793 6.8692ZM91.6177 8.23V22.9109H86.4885V8.23H91.6177ZM104.378 23.094C102.913 23.094 101.596 22.7887 100.427 22.1781C99.2752 21.5675 98.368 20.6952 97.7051 19.5612C97.0421 18.4272 96.7106 17.0926 96.7106 15.5573C96.7106 14.0395 97.0421 12.7136 97.7051 11.5796C98.3855 10.4456 99.3014 9.57334 100.453 8.96273C101.622 8.35212 102.939 8.04681 104.404 8.04681C105.87 8.04681 107.178 8.35212 108.33 8.96273C109.499 9.57334 110.415 10.4456 111.077 11.5796C111.758 12.7136 112.098 14.0395 112.098 15.5573C112.098 17.0752 111.758 18.4098 111.077 19.5612C110.415 20.6952 109.499 21.5675 108.33 22.1781C107.161 22.7887 105.844 23.094 104.378 23.094ZM104.378 18.6453C105.093 18.6453 105.687 18.3836 106.158 17.8602C106.646 17.3194 106.89 16.5518 106.89 15.5573C106.89 14.5629 106.646 13.804 106.158 13.2806C105.687 12.7572 105.102 12.4956 104.404 12.4956C103.707 12.4956 103.122 12.7572 102.651 13.2806C102.18 13.804 101.944 14.5629 101.944 15.5573C101.944 16.5692 102.171 17.3368 102.625 17.8602C103.078 18.3836 103.663 18.6453 104.378 18.6453Z" fill="white"/>
<path d="M129.703 4.46165V8.54403H122.323V11.789H127.767V15.6882H122.323V22.9109H117.194V4.46165H129.703ZM137.463 6.8692C136.556 6.8692 135.824 6.62496 135.265 6.13647C134.724 5.63053 134.454 5.00248 134.454 4.25229C134.454 3.48467 134.724 2.84789 135.265 2.34195C135.824 1.83601 136.556 1.58305 137.463 1.58305C138.353 1.58305 139.069 1.83601 139.609 2.34195C140.168 2.84789 140.447 3.48467 140.447 4.25229C140.447 5.00248 140.168 5.63053 139.609 6.13647C139.069 6.62496 138.353 6.8692 137.463 6.8692ZM140.002 8.23V22.9109H134.873V8.23H140.002ZM154.594 18.5406V22.9109H152.37C148.619 22.9109 146.743 21.0529 146.743 17.3368V12.4956H144.938V8.23H146.743V4.671H151.899V8.23H154.568V12.4956H151.899V17.4153C151.899 17.8166 151.986 18.1045 152.16 18.2789C152.352 18.4534 152.666 18.5406 153.103 18.5406H154.594Z" fill="#FFB23E"/>
</svg>
